# xmcd CD database file
#
# Track frame offsets:
#	150
#	31823
#	57158
#	82264
#	95667
#	118492
#	154050
#	182143
#	212703
#	243324
#	281198
#
# Disc length: 4528 seconds
#
# Revision: 0
# Processed by: cddbd v1.5.1PL2 Copyright (c) Steve Scherf et al.
# Submitted via: CDex 1.51
#
DISCID=a211ae0b
DTITLE=Wes Montgomery - Smokin' at the Half Note
DYEAR=1900
DGENRE=Jazz
TTITLE0=Wes Montgomery - Smokin' at the Half Note - 11 - Misty
TTITLE1=Wes Montgomery - Smokin' at the Half Note - 10 - Oh, You Crazy Moon
TTITLE2=Wes Montgomery - Smokin' at the Half Note - 09 - The Surrey wth the Fringe on Top
TTITLE3=Wes Montgomery - Smokin' at the Half Note - 08 - Portrait of Jenny
TTITLE4=Wes Montgomery - Smokin' at the Half Note - 07 - Impressions
TTITLE5=Wes Montgomery - Smokin' at the Half Note - 06 - Willow Weep for Me
TTITLE6=Wes Montgomery - Smokin' at the Half Note - 05 - What's New
TTITLE7=Wes Montgomery - Smokin' at the Half Note - 04 - Four on Six
TTITLE8=Wes Montgomery - Smokin' at the Half Note - 03 - Unit 7
TTITLE9=Wes Montgomery - Smokin' at the Half Note - 02 - If You Could See Me Now
TTITLE10=Wes Montgomery - Smokin' at the Half Note - 01 - No Blues
EXTD=
EXTT0=
EXTT1=
EXTT2=
EXTT3=
EXTT4=
EXTT5=
EXTT6=
EXTT7=
EXTT8=
EXTT9=
EXTT10=
PLAYORDER=
